<svg width="28" height="28" viewBox="0 0 28 28" fill="none" xmlns="http://www.w3.org/2000/svg">
<ellipse cx="13.7641" cy="13.815" rx="13.6796" ry="13.815" fill="white"/>
<path d="M12.5024 20.0355V14.5553H10.6763V12.4196H12.5024V10.8446C12.5024 9.01676 13.6078 8.02148 15.2224 8.02148C15.9957 8.02148 16.6604 8.07963 16.8541 8.10563V10.0158L15.7344 10.0163C14.8563 10.0163 14.6863 10.4377 14.6863 11.056V12.4196H16.7804L16.5077 14.5553H14.6863V20.0355H12.5024Z" fill="#333333"/>
<path d="M12.5024 20.0355V14.5553H10.6763V12.4196H12.5024V10.8446C12.5024 9.01676 13.6078 8.02148 15.2224 8.02148C15.9957 8.02148 16.6604 8.07963 16.8541 8.10563V10.0158L15.7344 10.0163C14.8563 10.0163 14.6863 10.4377 14.6863 11.056V12.4196H16.7804L16.5077 14.5553H14.6863V20.0355H12.5024Z" stroke="#333333"/>
</svg>
