<svg width="34" height="31" viewBox="0 0 34 31" fill="none" xmlns="http://www.w3.org/2000/svg">
<path d="M31.1898 29.7893H3.30663C2.59641 29.7893 1.91539 29.4875 1.41318 28.9501C0.911158 28.4127 0.628906 27.684 0.628906 26.924V3.53921C0.628906 2.77925 0.911139 2.05053 1.41318 1.51315C1.91539 0.975762 2.59641 0.67395 3.30663 0.67395H31.1898C31.8998 0.67395 32.5808 0.975746 33.0831 1.51315C33.5853 2.05053 33.8673 2.77925 33.8673 3.53921V26.924C33.8673 27.684 33.5853 28.4127 33.0831 28.9501C32.5808 29.4874 31.8998 29.7893 31.1898 29.7893ZM3.30663 2.90803C2.98094 2.90803 2.71672 3.19053 2.71672 3.53926V26.924C2.71672 27.2728 2.98092 27.5553 3.30663 27.5553H31.1898C31.5134 27.5522 31.7744 27.2705 31.7744 26.924V3.53926C31.7744 3.19278 31.5134 2.9111 31.1898 2.90803H3.30663Z" fill="#374151"/>
<path d="M6.69514 24.9467H27.3177C27.539 24.9534 27.7546 24.871 27.9218 24.7154C28.0889 24.5601 28.1951 24.3429 28.2196 24.1076C28.2439 23.872 28.1849 23.6354 28.0537 23.4443L25.209 19.3114C25.0587 19.0888 24.8254 18.9474 24.5698 18.9237C24.3143 18.9001 24.0617 18.9968 23.878 19.1885L20.9551 22.1654L14.1696 12.3078V12.3076C13.9983 12.0578 13.7228 11.9138 13.4332 11.9228C13.1436 11.9317 12.8765 12.0923 12.7186 12.3525L5.93321 23.4891L5.9334 23.4889C5.8161 23.6822 5.76884 23.9146 5.80073 24.1422C5.83242 24.3701 5.9408 24.5777 6.10573 24.7257C6.27048 24.874 6.48021 24.9526 6.69545 24.9467L6.69514 24.9467Z" fill="#374151"/>
<path d="M26.5186 9.11891C26.5186 10.948 25.1327 12.4309 23.4234 12.4309C21.7138 12.4309 20.3281 10.948 20.3281 9.11891C20.3281 7.28963 21.7139 5.80688 23.4234 5.80688C25.1327 5.80688 26.5186 7.28969 26.5186 9.11891Z" fill="#374151"/>
</svg>
