<svg width="130" height="77" viewBox="0 0 130 77" fill="none" xmlns="http://www.w3.org/2000/svg">
<path d="M19.2522 15.0586V14.8586H19.0522H9.35938H9.15937V15.0586V17.1711V17.3711H9.35938H19.0522H19.2522V17.1711V15.0586Z" fill="white" stroke="white" stroke-width="0.4"/>
<path d="M45.4985 30.9688V30.7687H45.2985H26.9062H26.7062V30.9688V33.0813V33.2813H26.9062H45.2985H45.4985V33.0813V30.9688Z" fill="white" stroke="white" stroke-width="0.4"/>
<path d="M45.4981 25.4844V25.2844H45.2981H33.875H33.675V25.4844V27.5969V27.7969H33.875H45.2981H45.4981V27.5969V25.4844Z" fill="white" stroke="white" stroke-width="0.4"/>
<path d="M45.5029 42.4492V42.2492H45.3029H37.7812H37.5812V42.4492V44.5617V44.7617H37.7812H45.3029H45.5029V44.5617V42.4492Z" fill="white" stroke="white" stroke-width="0.4"/>
<path d="M45.5029 46.1758V45.9758H45.3029H37.7812H37.5812V46.1758V48.2883V48.4883H37.7812H45.3029H45.5029V48.2883V46.1758Z" fill="white" stroke="white" stroke-width="0.4"/>
<path d="M2.26318 48.1268L2.37441 48.1331L2.43838 48.0419L28.3329 11.107L28.5536 10.7921H28.1691H10.6409V2.81023H35.7344H35.9344V2.61023V1.63672V1.43672H35.7344H9.47157H9.27157V1.63672V11.9657V12.1657H9.47157H25.9127L0.836532 47.7388L0.629067 48.0332L0.988562 48.0537L2.26318 48.1268Z" fill="white" stroke="white" stroke-width="0.4"/>
<path d="M35.6535 48.3388H35.8535V48.1388V37.805V37.605H35.6535H19.2062L44.2355 1.89996L44.4708 1.5643L44.0614 1.58542L42.8353 1.6487L42.7378 1.65373L42.6818 1.73363L16.7921 38.6637L16.5715 38.9785H16.9559H34.4842V46.9653H9.39062H9.19062V47.1653V48.1388V48.3388H9.39062H35.6535Z" fill="white" stroke="white" stroke-width="0.4"/>
<path d="M52.4219 0.8H52.2218L52.2219 1.00006L52.2364 47.9329L52.2365 48.1329H52.4364H85.3922H85.5922V47.9329V46.5894V46.3894H85.3922H54.0904V25.2019H82.1936H82.3936V25.0019V23.6633V23.4633H82.1936H54.0904V2.53858H85.0626H85.2626V2.33858V1V0.8H85.0626H52.4219Z" fill="white" stroke="white" stroke-width="0.4"/>
<path d="M96.5469 0.8H96.3468L96.3469 1.00006L96.3614 47.9329L96.3615 48.1329H96.5614H129.517H129.717V47.9329V46.5894V46.3894H129.517H98.2154V25.2019H126.319H126.519V25.0019V23.6633V23.4633H126.319H98.2154V2.53858H129.188H129.388V2.33858V1V0.8H129.188H96.5469Z" fill="white" stroke="white" stroke-width="0.4"/>
<path d="M1.10156 55.9875H0.901562V56.1875V75.6577V75.8577H1.10156H1.70737H1.90737V75.6577V56.1875V55.9875H1.70737H1.10156Z" fill="white" stroke="white" stroke-width="0.4"/>
<path d="M7.65625 55.9875H7.456L7.45625 56.1877L7.48051 75.6579L7.48075 75.8577H7.68051H8.26205H8.46205V75.6577V57.7763L22.8243 75.7824L22.8844 75.8577H22.9807H23.5089H23.7089V75.6577V56.1875V55.9875H23.5089H22.9274H22.7274V56.1875V74.069L8.36023 56.0628L8.30018 55.9875H8.2039H7.65625Z" fill="white" stroke="white" stroke-width="0.4"/>
<path d="M27.3828 55.9875H27.0736L27.2004 56.2695L36.0113 75.8614L36.0643 75.9794H36.1937H36.6783H36.8077L36.8607 75.8613L45.6619 56.2695L45.7885 55.9875H45.4794H44.8445H44.7149L44.662 56.1058L36.4602 74.4283L28.2584 56.1058L28.2055 55.9875H28.0759H27.3828Z" fill="white" stroke="white" stroke-width="0.4"/>
<path d="M47.1906 65.8923V65.9459C47.1906 71.3482 51.0232 76.1779 57.0205 76.1779C63.0178 76.1779 66.8504 71.3482 66.8504 65.9459V65.8923C66.8504 60.4901 63.013 55.6555 57.0205 55.6555C51.028 55.6555 47.1906 60.4901 47.1906 65.8923ZM65.8446 65.9167V65.9751C65.8446 70.8874 62.3152 75.223 57.0496 75.223C51.7843 75.223 48.2013 70.8001 48.2013 65.9167V65.8631C48.2013 60.9509 51.7306 56.6152 56.9963 56.6152C62.2617 56.6152 65.8446 61.0334 65.8446 65.9167Z" fill="white" stroke="white" stroke-width="0.4"/>
<path d="M71.7344 55.9875H71.5344V56.1875V75.6577V75.8577H71.7344H72.345H72.545V75.6577V56.1875V55.9875H72.345H71.7344Z" fill="white" stroke="white" stroke-width="0.4"/>
<path d="M94.4602 59.0818L94.6024 58.9373L86.9026 76.0022L86.9014 76.2022C86.9015 76.2022 86.9016 76.2022 86.9017 76.2022C88.3446 76.2108 89.7733 75.9153 91.0954 75.3348C92.4175 74.7542 93.6036 73.9015 94.5771 72.8318L94.7089 72.6869L94.5668 72.5521L94.1258 72.1335L93.9765 71.9918L93.8391 72.1451C92.9673 73.1183 91.9021 73.8972 90.7123 74.4315C89.5226 74.9657 88.2347 75.2436 86.9317 75.2473C81.9644 75.2473 78.2482 71.0165 78.2482 65.9702V65.9167C78.2482 60.9128 81.9124 56.6396 86.9317 56.6396C90.3222 56.6396 92.2379 58.026 93.7667 59.5039L93.9092 59.6417L94.0482 59.5004L94.4602 59.0818Z" fill="white" stroke="white" stroke-width="0.4"/>
<path d="M98.3828 55.9875H98.1826L98.1828 56.1877L98.2071 75.6433L98.2073 75.8431H98.4071H112.079H112.279V75.6431V75.0882V74.8882H112.079H99.1935V66.3368H110.727H110.927V66.1368V65.5819V65.3819H110.727H99.1935V56.9424H111.919H112.119V56.7424V56.1875V55.9875H111.919H98.3828Z" fill="white" stroke="white" stroke-width="0.4"/>
<path d="M115.784 72.3927C116.733 73.3342 117.857 74.0809 119.091 74.5908C120.338 75.1061 121.674 75.3695 123.023 75.3658L115.784 72.3927ZM115.784 72.3927C115.774 72.3827 115.764 72.3726 115.754 72.3625L115.612 72.504C115.612 72.5041 115.612 72.5042 115.612 72.5043L115.454 72.6637C115.453 72.6633 115.453 72.6629 115.452 72.6625L115.312 72.8055L115.454 72.9466L115.457 72.944C117.488 74.8587 120.17 75.9281 122.96 75.9305C127.055 75.9305 129.571 73.6525 129.571 70.7611V70.7076C129.571 68.0645 127.913 66.5361 122.873 65.509L115.784 72.3927ZM115.171 72.6644L115.028 72.8074L115.173 72.9485C117.257 74.9864 120.051 76.128 122.96 76.1305H122.96C125.044 76.1305 126.744 75.5508 127.928 74.585C129.113 73.6174 129.771 72.269 129.771 70.7611V70.7076C129.771 69.335 129.336 68.2309 128.237 67.3465C127.154 66.4746 125.441 65.8282 122.913 65.3131C120.538 64.8272 119.013 64.2779 118.083 63.5769C117.622 63.2294 117.309 62.8463 117.11 62.4155C116.911 61.9836 116.821 61.4929 116.821 60.9238V60.8362C116.821 58.7134 118.946 56.6557 122.266 56.6554C124.486 56.672 126.639 57.418 128.397 58.7796L128.553 58.9004L128.675 58.7461L129.063 58.2593L129.19 58.1001L129.029 57.9761C127.103 56.4975 124.744 55.7007 122.32 55.7102C118.608 55.7104 115.82 58.0107 115.82 60.8849V60.9384C115.82 62.3564 116.3 63.4532 117.41 64.3116C118.503 65.1575 120.195 65.7621 122.595 66.2501C125.034 66.7482 126.58 67.3108 127.516 68.0251C127.979 68.3792 128.291 68.7691 128.489 69.2071C128.687 69.6463 128.775 70.1448 128.775 70.7222V70.7806C128.775 73.2383 126.584 75.1658 123.023 75.1658L123.023 75.1658C121.7 75.1694 120.39 74.9112 119.167 74.4059C117.944 73.9007 116.832 73.1583 115.895 72.2211L115.753 72.0794L115.612 72.2214L115.171 72.6644Z" fill="white" stroke="white" stroke-width="0.4"/>
</svg>
