<svg width="80" height="30" viewBox="0 0 80 30" fill="none" xmlns="http://www.w3.org/2000/svg">
<g clip-path="url(#clip0_2801_288)">
<path d="M40.9297 15.0002L49.9573 1.98724V-0.00976562H36.9131V2.67871H45.9978L36.9628 15.6917V17.6887H50.007V15.0002H40.9297Z" fill="white"/>
<path d="M56.5711 15V10.1797H64.2465V7.49127H56.5711V2.68846H64.8405V0H53.3796V17.696H64.9101V15H56.5711Z" fill="white"/>
<path d="M71.5667 15V10.1797H79.2421V7.49127H71.5667V2.68846H79.8337V0H68.3752V17.696H79.9057V15H71.5667Z" fill="white"/>
<path d="M36.9775 22.1445V28.8445H37.9842V22.1445H36.9775Z" fill="white"/>
<path d="M43.9969 22.1445V27.0647H43.9347L40.5419 22.1445H39.6099V28.8445H40.6165V23.9319H40.6787L44.0689 28.8445H44.9936V22.1445H43.9969Z" fill="white"/>
<path d="M50.9912 22.1445L49.1345 27.6013H49.0599L47.2082 22.1445H46.1145L48.5156 28.8445H49.6788L52.0774 22.1445H50.9912Z" fill="white"/>
<path d="M58.2712 23.6523C58.0325 23.1636 57.6612 22.7526 57.1999 22.4666C56.7299 22.1967 56.1979 22.0547 55.6564 22.0547C55.115 22.0547 54.5829 22.1967 54.1129 22.4666C53.6517 22.7526 53.2803 23.1636 53.0416 23.6523C52.7843 24.2321 52.6514 24.8598 52.6514 25.4946C52.6514 26.1293 52.7843 26.757 53.0416 27.3368C53.2796 27.826 53.6511 28.2372 54.1129 28.5225C54.5824 28.7939 55.1147 28.9367 55.6564 28.9367C56.1981 28.9367 56.7304 28.7939 57.1999 28.5225C57.6616 28.2382 58.0332 27.8278 58.2712 27.3393C58.5286 26.7591 58.6615 26.131 58.6615 25.4958C58.6615 24.8606 58.5286 24.2326 58.2712 23.6523ZM57.3988 26.875C57.2471 27.2223 56.9984 27.5179 56.6829 27.7262C56.3733 27.9156 56.0177 28.0158 55.6552 28.0158C55.2926 28.0158 54.937 27.9156 54.6274 27.7262C54.3119 27.5179 54.0632 27.2223 53.9115 26.875C53.5603 25.9894 53.5603 25.0023 53.9115 24.1166C54.0632 23.7694 54.3119 23.4737 54.6274 23.2654C54.937 23.076 55.2926 22.9759 55.6552 22.9759C56.0177 22.9759 56.3733 23.076 56.6829 23.2654C56.9984 23.4737 57.2471 23.7694 57.3988 24.1166C57.75 25.0023 57.75 25.9894 57.3988 26.875Z" fill="white"/>
<path d="M60.0708 22.1445V28.8445H61.065V22.1445H60.0708Z" fill="white"/>
<path d="M67.0056 27.2541C66.8999 27.415 66.767 27.5561 66.6129 27.671C66.4555 27.7823 66.2808 27.8667 66.0959 27.9206C65.9008 27.9793 65.6981 28.0087 65.4944 28.0079C65.1317 28.0123 64.7753 27.9118 64.4679 27.7184C64.1512 27.5108 63.9015 27.215 63.7495 26.8672C63.4033 25.9849 63.4033 25.0035 63.7495 24.1213C63.9032 23.7738 64.1524 23.4777 64.4679 23.2676C64.7752 23.0716 65.1329 22.9701 65.4969 22.9755C65.7024 22.9743 65.9069 23.0046 66.1034 23.0654C66.2879 23.1183 66.4619 23.2027 66.6179 23.315C66.7728 23.4319 66.9058 23.5756 67.0106 23.7394C67.12 23.9144 67.1935 24.1096 67.2268 24.3135H68.2434C68.1959 23.9762 68.0855 23.651 67.9178 23.3549C67.7634 23.0792 67.5565 22.8366 67.3088 22.641C67.0614 22.4447 66.7811 22.2943 66.4812 22.1967C66.16 22.0926 65.8243 22.0412 65.4869 22.0444C64.9451 22.0349 64.4114 22.1776 63.9459 22.4563C63.4854 22.7424 63.1149 23.1534 62.8771 23.642C62.6206 24.222 62.488 24.8496 62.488 25.4842C62.488 26.1189 62.6206 26.7465 62.8771 27.3265C63.114 27.8149 63.4837 28.2259 63.9434 28.5122C64.41 28.7929 64.9456 28.9365 65.4894 28.9266C65.8341 28.9295 66.1768 28.8747 66.5035 28.7643C66.8054 28.6599 67.0864 28.5027 67.3337 28.3C67.5746 28.101 67.7769 27.8589 67.9302 27.5861C68.0868 27.3048 68.1928 26.9981 68.2434 26.6799H67.2268C67.192 26.8842 67.1168 27.0795 67.0056 27.2541Z" fill="white"/>
<path d="M70.6146 27.9807V25.9287H73.5724V25.0625H70.6146V23.0206H73.8035V22.1494H69.6079V28.8494H73.8333V27.9807H70.6146Z" fill="white"/>
<path d="M79.8209 26.2182C79.7065 26.0063 79.549 25.8209 79.3586 25.6741C79.1671 25.5295 78.9573 25.4111 78.7347 25.3221C78.5219 25.2363 78.3035 25.1654 78.081 25.1099L77.4298 24.9402C77.2981 24.9052 77.1638 24.8653 77.0222 24.8128C76.8836 24.764 76.751 24.6995 76.627 24.6206C76.5079 24.5468 76.4062 24.448 76.3287 24.3311C76.2524 24.2076 76.2135 24.0645 76.2168 23.9192C76.2168 23.7394 76.2743 23.5644 76.3809 23.4199C76.5017 23.2624 76.6621 23.14 76.8457 23.0655C77.0718 22.9757 77.3135 22.9324 77.5565 22.9382C77.8908 22.9235 78.2218 23.0105 78.506 23.1878C78.6279 23.2672 78.7302 23.3734 78.8051 23.4984C78.8801 23.6234 78.9257 23.7639 78.9385 23.9092H79.9079C79.9057 23.5655 79.7961 23.2311 79.5947 22.9531C79.3839 22.6663 79.102 22.4399 78.777 22.2966C78.4 22.1284 77.9914 22.0432 77.5789 22.047C77.164 22.0433 76.7531 22.1284 76.3734 22.2966C76.0369 22.4414 75.7445 22.6731 75.5259 22.9681C75.3164 23.2626 75.2074 23.6173 75.2152 23.9791C75.2061 24.1897 75.2433 24.3997 75.3241 24.5942C75.4048 24.7888 75.5272 24.9631 75.6824 25.1049C76.0479 25.4179 76.4825 25.6387 76.9501 25.7489L77.738 25.9661C77.9582 26.0215 78.1735 26.095 78.3818 26.1858C78.5534 26.2554 78.7078 26.3619 78.8341 26.4978C78.9521 26.6364 79.0126 26.8151 79.0031 26.9971C79.0068 27.2037 78.9382 27.4051 78.8093 27.5662C78.6708 27.7369 78.4899 27.8678 78.2848 27.9456C78.0427 28.0409 77.7843 28.0876 77.5242 28.0829C77.2815 28.0852 77.0402 28.0455 76.8109 27.9656C76.6057 27.8965 76.4228 27.7732 76.2815 27.6087C76.134 27.4417 76.0465 27.2299 76.0329 27.0071H75.0461C75.0588 27.3807 75.1778 27.7428 75.3892 28.0505C75.6055 28.3535 75.9028 28.5889 76.2467 28.7295C76.6567 28.9012 77.0975 28.9862 77.5416 28.9791C77.9992 28.9933 78.4545 28.9082 78.8764 28.7295C79.2173 28.5822 79.5095 28.3407 79.719 28.033C79.9163 27.7336 80.0186 27.3811 80.0123 27.022C80.0206 26.7418 79.9546 26.4644 79.8209 26.2182Z" fill="white"/>
<path d="M25.3477 26.5654L25.3303 26.6185C25.3294 26.626 25.3294 26.6337 25.3303 26.6413C25.3353 26.616 25.3353 26.5907 25.3477 26.5654Z" fill="white"/>
<path d="M25.4125 26.3608C25.4066 26.3874 25.3991 26.4135 25.3901 26.4392L25.4051 26.3785L25.4125 26.3608Z" fill="white"/>
<path d="M25.5165 25.7065C25.5202 25.7581 25.5202 25.8098 25.5165 25.8613C25.5165 25.8938 25.5164 25.9237 25.5042 25.9562C25.5115 25.9115 25.5164 25.8665 25.5189 25.8214C25.5205 25.7831 25.5197 25.7447 25.5165 25.7065Z" fill="white"/>
<path d="M25.5216 25.5493V25.5992C25.5216 25.6292 25.5216 25.6567 25.5216 25.6866C25.5228 25.6932 25.5228 25.7 25.5216 25.7066C25.5191 25.6542 25.5216 25.6017 25.5216 25.5493Z" fill="white"/>
<path d="M17.4786 6.97727C17.4786 7.16264 17.4053 7.34043 17.2747 7.47151C17.1442 7.60259 16.9672 7.67623 16.7826 7.67623H9.05753C8.87295 7.67623 8.69593 7.60259 8.56541 7.47151C8.4349 7.34043 8.36157 7.16264 8.36157 6.97727C8.36157 6.7919 8.4349 6.61412 8.56541 6.48304C8.69593 6.35196 8.87295 6.27832 9.05753 6.27832H16.7826C16.9672 6.27832 17.1442 6.35196 17.2747 6.48304C17.4053 6.61412 17.4786 6.7919 17.4786 6.97727Z" fill="white"/>
<path d="M22.4171 17.1539C22.4171 17.3392 22.3438 17.517 22.2132 17.6481C22.0827 17.7792 21.9057 17.8528 21.7211 17.8528H9.05723C8.96217 17.8585 8.86695 17.8446 8.77743 17.812C8.68791 17.7794 8.60597 17.7288 8.53666 17.6632C8.46734 17.5976 8.41211 17.5185 8.37436 17.4307C8.33661 17.3429 8.31714 17.2483 8.31714 17.1526C8.31714 17.057 8.33661 16.9623 8.37436 16.8745C8.41211 16.7867 8.46734 16.7076 8.53666 16.642C8.60597 16.5765 8.68791 16.5258 8.77743 16.4932C8.86695 16.4606 8.96217 16.4467 9.05723 16.4524H21.7211C21.8127 16.4524 21.9034 16.4706 21.988 16.5059C22.0726 16.5411 22.1495 16.5929 22.2141 16.658C22.2788 16.7232 22.33 16.8005 22.3648 16.8856C22.3996 16.9707 22.4174 17.0619 22.4171 17.1539Z" fill="white"/>
<path d="M22.4171 12.0645C22.4174 12.1565 22.3996 12.2476 22.3648 12.3327C22.33 12.4178 22.2788 12.4951 22.2141 12.5603C22.1495 12.6255 22.0726 12.6772 21.988 12.7125C21.9034 12.7477 21.8127 12.7659 21.7211 12.7659H9.05723C8.96217 12.7716 8.86695 12.7577 8.77743 12.7251C8.68791 12.6925 8.60597 12.6419 8.53666 12.5763C8.46734 12.5107 8.41211 12.4316 8.37436 12.3438C8.33661 12.256 8.31714 12.1613 8.31714 12.0657C8.31714 11.9701 8.33661 11.8754 8.37436 11.7876C8.41211 11.6998 8.46734 11.6207 8.53666 11.5551C8.60597 11.4896 8.68791 11.4389 8.77743 11.4063C8.86695 11.3737 8.96217 11.3598 9.05723 11.3655H21.7211C21.9057 11.3655 22.0827 11.4391 22.2132 11.5702C22.3438 11.7013 22.4171 11.8791 22.4171 12.0645Z" fill="white"/>
<path d="M29.424 0.0748791C29.274 0.0547163 29.1229 0.0447099 28.9716 0.0449253H8.05816C7.18075 0.0449253 6.33928 0.394975 5.71886 1.01807C5.09844 1.64116 4.74989 2.48626 4.74989 3.36744V21.6051H0V25.4069C0 26.6251 0.481837 27.7933 1.33952 28.6547C2.1972 29.5161 3.36047 30 4.57342 30H22.4694H22.6981L22.8745 29.9875C22.9615 29.9875 23.0485 29.97 23.1231 29.9551C23.3188 29.932 23.5125 29.8936 23.7022 29.8402L23.8116 29.8078C24.6986 29.5562 25.4794 29.0203 26.035 28.2816C26.5905 27.5429 26.8903 26.6421 26.8887 25.7164V14.8003H32.3992V3.51722C32.4012 2.67923 32.1009 1.86887 31.554 1.23603C31.007 0.603197 30.2504 0.190711 29.424 0.0748791ZM4.74989 28.6021H4.57342C3.73026 28.6008 2.92205 28.2636 2.32608 27.6646C1.73011 27.0656 1.39505 26.2537 1.39439 25.4069V23.003H4.74989V28.6021ZM6.14429 28.5696V23.003H18.0476V25.5492C18.0465 26.6693 18.4674 27.7483 19.2258 28.5696H6.14429ZM25.5316 25.5991C25.5316 25.6291 25.5316 25.6565 25.5316 25.6865C25.5328 25.6931 25.5328 25.6998 25.5316 25.7064C25.5354 25.758 25.5354 25.8097 25.5316 25.8612C25.5316 25.8937 25.5316 25.9236 25.5192 25.9561C25.5067 26.0459 25.4918 26.1333 25.4719 26.2207C25.4719 26.2506 25.4595 26.2806 25.4496 26.3105C25.4396 26.3405 25.4496 26.343 25.4371 26.3605C25.4312 26.3867 25.4237 26.4125 25.4148 26.4378L25.3924 26.5077C25.3898 26.5199 25.3856 26.5316 25.38 26.5427V26.5652L25.3626 26.6176C25.3616 26.625 25.3616 26.6326 25.3626 26.64C25.3569 26.6502 25.3528 26.6611 25.3501 26.6725C25.3429 26.686 25.337 26.7002 25.3327 26.7149L25.3129 26.7649L25.2905 26.8123C25.286 26.8281 25.2793 26.8432 25.2706 26.8572V26.8722V26.8872C25.0508 27.3753 24.6995 27.792 24.2565 28.0904L24.1074 28.1877L24.0701 28.2077C24.0422 28.2254 24.0131 28.2413 23.9831 28.2551C23.9368 28.2827 23.8887 28.3069 23.8389 28.3275L23.7072 28.3849L23.5954 28.4274L23.563 28.4398L23.3841 28.4948C23.2094 28.5431 23.0304 28.574 22.8497 28.5871H22.6956H22.539H22.3824H22.278H22.1985H22.0966H22.0767L21.9201 28.5572C21.8547 28.5449 21.7899 28.5291 21.7262 28.5097C21.6766 28.4974 21.6276 28.4824 21.5796 28.4648L21.4155 28.4049L21.326 28.3674C21.1428 28.2879 20.9679 28.19 20.8041 28.0754L20.6525 27.9606C20.6022 27.9225 20.554 27.8817 20.5083 27.8382H20.4959C20.4536 27.7983 20.4114 27.7584 20.3716 27.7159C20.3259 27.6718 20.2828 27.6251 20.2423 27.5761C20.2026 27.5312 20.1628 27.4813 20.128 27.4338C20.0888 27.386 20.0523 27.336 20.0186 27.2841C19.9963 27.2516 19.9764 27.2192 19.9565 27.1867C19.9366 27.1543 19.9167 27.1218 19.8993 27.0894C19.8571 27.017 19.8198 26.9446 19.785 26.8697C19.7572 26.8136 19.7323 26.7561 19.7104 26.6974C19.6881 26.64 19.6682 26.5826 19.6483 26.5227C19.6284 26.4628 19.611 26.4029 19.5961 26.3405C19.5553 26.1841 19.527 26.0246 19.5116 25.8637C19.5116 25.7688 19.5116 25.674 19.5116 25.5791V23.0329H25.5912L25.5316 25.5991ZM25.5962 2.84572C25.5532 3.06526 25.5316 3.28848 25.5316 3.51223V21.6051H6.14429V3.36744C6.14429 2.85766 6.34593 2.36877 6.70485 2.0083C7.06377 1.64784 7.55057 1.44533 8.05816 1.44533H26.2027C25.8943 1.85955 25.6828 2.33818 25.5838 2.84572H25.5962ZM31.0396 13.3999H26.9136V3.3949C26.9374 2.98474 27.0823 2.59097 27.3297 2.26378C27.5771 1.93659 27.916 1.69077 28.303 1.55766C28.5173 1.48322 28.7424 1.44526 28.9691 1.44533C29.5149 1.44533 30.0384 1.66309 30.4244 2.05071C30.8103 2.43832 31.0272 2.96405 31.0272 3.51223L31.0396 13.3999Z" fill="white"/>
<path d="M25.3477 26.5654L25.3303 26.6185C25.3294 26.626 25.3294 26.6337 25.3303 26.6413C25.3353 26.616 25.3353 26.5907 25.3477 26.5654Z" fill="white"/>
<path d="M25.4125 26.3608C25.4066 26.3874 25.3991 26.4135 25.3901 26.4392L25.4051 26.3785L25.4125 26.3608Z" fill="white"/>
<path d="M25.5165 25.7065C25.5202 25.7581 25.5202 25.8098 25.5165 25.8613C25.5165 25.8938 25.5164 25.9237 25.5042 25.9562C25.5115 25.9115 25.5164 25.8665 25.5189 25.8214C25.5205 25.7831 25.5197 25.7447 25.5165 25.7065Z" fill="white"/>
<path d="M25.5216 25.5493V25.5992C25.5216 25.6292 25.5216 25.6567 25.5216 25.6866C25.5228 25.6932 25.5228 25.7 25.5216 25.7066C25.5191 25.6542 25.5216 25.6017 25.5216 25.5493Z" fill="white"/>
<path d="M25.4125 26.3608C25.4066 26.3874 25.3991 26.4135 25.3901 26.4392L25.4051 26.3785L25.4125 26.3608Z" fill="white"/>
<path d="M25.5165 25.7065C25.5202 25.7581 25.5202 25.8098 25.5165 25.8613C25.5165 25.8938 25.5164 25.9237 25.5042 25.9562C25.5115 25.9115 25.5164 25.8665 25.5189 25.8214C25.5205 25.7831 25.5197 25.7447 25.5165 25.7065Z" fill="white"/>
<path d="M17.4786 6.97727C17.4786 7.16264 17.4053 7.34043 17.2747 7.47151C17.1442 7.60259 16.9672 7.67623 16.7826 7.67623H9.05753C8.87295 7.67623 8.69593 7.60259 8.56541 7.47151C8.4349 7.34043 8.36157 7.16264 8.36157 6.97727C8.36157 6.7919 8.4349 6.61412 8.56541 6.48304C8.69593 6.35196 8.87295 6.27832 9.05753 6.27832H16.7826C16.9672 6.27832 17.1442 6.35196 17.2747 6.48304C17.4053 6.61412 17.4786 6.7919 17.4786 6.97727Z" fill="white"/>
<path d="M22.4171 12.0645C22.4174 12.1565 22.3996 12.2476 22.3648 12.3327C22.33 12.4178 22.2788 12.4951 22.2141 12.5603C22.1495 12.6255 22.0726 12.6772 21.988 12.7125C21.9034 12.7477 21.8127 12.7659 21.7211 12.7659H9.05723C8.96217 12.7716 8.86695 12.7577 8.77743 12.7251C8.68791 12.6925 8.60597 12.6419 8.53666 12.5763C8.46734 12.5107 8.41211 12.4316 8.37436 12.3438C8.33661 12.256 8.31714 12.1613 8.31714 12.0657C8.31714 11.9701 8.33661 11.8754 8.37436 11.7876C8.41211 11.6998 8.46734 11.6207 8.53666 11.5551C8.60597 11.4896 8.68791 11.4389 8.77743 11.4063C8.86695 11.3737 8.96217 11.3598 9.05723 11.3655H21.7211C21.9057 11.3655 22.0827 11.4391 22.2132 11.5702C22.3438 11.7013 22.4171 11.8791 22.4171 12.0645Z" fill="white"/>
<path d="M22.4171 17.1539C22.4171 17.3392 22.3438 17.517 22.2132 17.6481C22.0827 17.7792 21.9057 17.8528 21.7211 17.8528H9.05723C8.96217 17.8585 8.86695 17.8446 8.77743 17.812C8.68791 17.7794 8.60597 17.7288 8.53666 17.6632C8.46734 17.5976 8.41211 17.5185 8.37436 17.4307C8.33661 17.3429 8.31714 17.2483 8.31714 17.1526C8.31714 17.057 8.33661 16.9623 8.37436 16.8745C8.41211 16.7867 8.46734 16.7076 8.53666 16.642C8.60597 16.5765 8.68791 16.5258 8.77743 16.4932C8.86695 16.4606 8.96217 16.4467 9.05723 16.4524H21.7211C21.8127 16.4524 21.9034 16.4706 21.988 16.5059C22.0726 16.5411 22.1495 16.5929 22.2141 16.658C22.2788 16.7232 22.33 16.8005 22.3648 16.8856C22.3996 16.9707 22.4174 17.0619 22.4171 17.1539Z" fill="white"/>
<path d="M25.5091 25.8213C25.5091 25.8213 25.5091 25.8488 25.5091 25.8612C25.5091 25.8737 25.5091 25.9236 25.4968 25.9561C25.5033 25.9114 25.5074 25.8664 25.5091 25.8213Z" fill="white"/>
</g>
<defs>
<clipPath id="clip0_2801_288">
<rect width="80" height="30" fill="white"/>
</clipPath>
</defs>
</svg>
