<svg width="18" height="18" viewBox="0 0 18 18" fill="none" xmlns="http://www.w3.org/2000/svg">
<path d="M12.4225 2.01172H5.62779C4.66914 2.01292 3.75006 2.39432 3.07223 3.07212C2.39432 3.75003 2.01303 4.66903 2.01172 5.62769V12.4232C2.01302 13.3819 2.39432 14.3009 3.07223 14.9788C3.75003 15.6567 4.66914 16.038 5.62779 16.0393H12.4225C13.3812 16.038 14.3003 15.6567 14.9781 14.9788C15.656 14.301 16.0373 13.3819 16.0386 12.4232V5.62846C16.0375 4.6697 15.6562 3.75052 14.9783 3.07251C14.3005 2.3945 13.3813 2.013 12.4225 2.0118V2.01172ZM15.1624 12.4232C15.1616 13.1496 14.8727 13.8461 14.3591 14.3598C13.8454 14.8734 13.149 15.1622 12.4225 15.163H5.62779C4.90136 15.1622 4.20486 14.8733 3.6912 14.3598C3.1776 13.8461 2.88873 13.1496 2.88793 12.4232V5.62843C2.88874 4.902 3.17763 4.20551 3.6912 3.69184C4.20489 3.17825 4.90136 2.88937 5.62779 2.88858H12.4225C13.149 2.88938 13.8455 3.17827 14.3591 3.69184C14.8727 4.20553 15.1616 4.902 15.1624 5.62843V12.4232ZM12.6411 9.0258C12.6411 9.14212 12.5949 9.25362 12.5127 9.33579C12.4304 9.41806 12.3189 9.46426 12.2027 9.46426H9.46364V12.2041C9.46364 12.3607 9.38007 12.5055 9.24436 12.5838C9.10876 12.6622 8.94163 12.6622 8.80601 12.5838C8.67031 12.5055 8.58674 12.3607 8.58674 12.2041V9.46426H5.84688C5.69029 9.46426 5.54554 9.38069 5.46718 9.24499C5.38884 9.10939 5.38884 8.94225 5.46718 8.80664C5.54553 8.67093 5.69028 8.58736 5.84688 8.58736H8.58674V5.84751C8.58674 5.69091 8.67031 5.54616 8.80601 5.46781C8.94161 5.38946 9.10875 5.38946 9.24436 5.46781C9.38007 5.54616 9.46364 5.6909 9.46364 5.84751V8.58736H12.2035C12.3197 8.58756 12.431 8.63387 12.5131 8.71603C12.5951 8.7982 12.6412 8.90969 12.6412 9.02582L12.6411 9.0258Z" fill="#333333"/>
</svg>
