<svg width="50" height="50" viewBox="0 0 50 50" fill="none" xmlns="http://www.w3.org/2000/svg">
<path d="M34.5068 5.58838H15.6325C12.9696 5.59173 10.4166 6.65116 8.53375 8.53395C6.65068 10.417 5.59153 12.9698 5.58789 15.6327V34.5092C5.59152 37.1721 6.65068 39.7251 8.53375 41.608C10.4165 43.491 12.9696 44.5502 15.6325 44.5538H34.5068C37.1698 44.5502 39.7228 43.491 41.6056 41.608C43.4887 39.7252 44.5478 37.1721 44.5515 34.5092V15.6349C44.5484 12.9717 43.4893 10.4184 41.6062 8.53502C39.7234 6.65166 37.1701 5.59195 34.5068 5.58859V5.58838ZM42.1175 34.5091C42.1153 36.527 41.3128 38.4617 39.8863 39.8885C38.4593 41.3152 36.5247 42.1176 34.5068 42.1198H15.6325C13.6147 42.1176 11.68 41.3151 10.2531 39.8885C8.82646 38.4616 8.02403 36.527 8.02182 34.5091V15.6348C8.02405 13.617 8.82653 11.6822 10.2531 10.2554C11.68 8.82874 13.6147 8.02631 15.6325 8.02409H34.5068C36.5247 8.02633 38.4594 8.82881 39.8863 10.2554C41.3129 11.6823 42.1153 13.617 42.1175 15.6348V34.5091ZM35.1139 25.072C35.1139 25.3951 34.9855 25.7048 34.7573 25.933C34.5288 26.1615 34.2191 26.2899 33.8962 26.2899H26.2877V33.9006C26.2877 34.3356 26.0555 34.7377 25.6786 34.9553C25.3019 35.173 24.8376 35.173 24.4609 34.9553C24.084 34.7377 23.8518 34.3356 23.8518 33.9006V26.2899H16.2411C15.8061 26.2899 15.404 26.0577 15.1864 25.6808C14.9688 25.3041 14.9688 24.8399 15.1864 24.4632C15.404 24.0862 15.8061 23.8541 16.2411 23.8541H23.8518V16.2433C23.8518 15.8084 24.084 15.4063 24.4609 15.1886C24.8376 14.971 25.3019 14.971 25.6786 15.1886C26.0555 15.4063 26.2877 15.8083 26.2877 16.2433V23.8541H33.8984C34.2212 23.8546 34.5304 23.9832 34.7583 24.2115C34.9863 24.4397 35.1143 24.7494 35.1143 25.072L35.1139 25.072Z" fill="#D0D5DD"/>
</svg>
